<?xml version="1.0" encoding="utf-8"?>
<!-- Generator: Adobe Illustrator 24.3.0, SVG Export Plug-In . SVG Version: 6.00 Build 0)  -->
<svg version="1.1" id="Layer_1" xmlns="http://www.w3.org/2000/svg" xmlns:xlink="http://www.w3.org/1999/xlink" x="0px" y="0px"
	 viewBox="0 0 140.184 38.323" style="enable-background:new 0 0 140.184 38.323;" xml:space="preserve">
<style type="text/css">
	.st0{fill:#243550;}
</style>
<g>
	<path class="st0" d="M49.487,17.335c0.123-0.533,0.232-1.006,0.351-1.524c-0.352-0.07-0.639-0.143-0.931-0.181
		c-1.21-0.157-2.419-0.322-3.633-0.448c-1.32-0.138-2.642-0.276-3.967-0.341c-1.735-0.085-3.473-0.103-5.21-0.142
		c-1.265-0.028-2.531-0.07-3.796-0.059c-1.523,0.014-3.046,0.053-4.568,0.126c-1.669,0.08-3.334,0.233-5.003,0.312
		c-1.178,0.056-2.36,0.049-3.541,0.051c-0.274,0-0.551-0.067-0.821-0.126c-0.421-0.092-0.646-0.391-0.768-0.785
		c-0.083-0.27-0.033-0.501,0.16-0.713c0.313-0.343,0.704-0.564,1.132-0.713c0.87-0.305,1.738-0.621,2.623-0.875
		c4.017-1.154,8.074-2.153,12.171-2.984c1.08-0.219,2.173-0.373,3.268-0.494c1.525-0.17,3.047-0.369,4.585-0.331
		c0.083,0.002,0.167-0.019,0.282-0.033c0.329-0.817,0.527-1.708,1.182-2.417c0.272,0.454,0.085,0.866,0.02,1.27
		c-0.064,0.399-0.161,0.793-0.252,1.226c0.181,0.054,0.342,0.091,0.496,0.15c1.006,0.383,1.368,0.921,1.392,1.863
		c0.013,0.506-0.028,1.016-0.324,1.465c-0.311,0.472-0.917,0.554-1.35,0.191c-0.277-0.232-0.544-0.486-0.672-0.839
		c-0.139-0.382-0.267-0.767-0.39-1.154c-0.063-0.2-0.105-0.407-0.159-0.623c-0.78-0.084-1.53-0.063-2.274,0.018
		c-3.458,0.377-6.854,1.094-10.225,1.934c-2.58,0.643-5.15,1.321-7.72,2.005c-0.824,0.219-1.631,0.504-2.46,0.764
		c0.074,0.224,0.226,0.154,0.325,0.151c1.306-0.04,2.613-0.083,3.919-0.14c0.963-0.042,1.927-0.077,2.886-0.163
		c1.563-0.14,3.128-0.107,4.694-0.125c1.308-0.015,2.616-0.081,3.924-0.074c1.458,0.009,2.916,0.075,4.374,0.116
		c0.043,0.001,0.086,0.002,0.129,0.004c1.221,0.043,2.443,0.061,3.662,0.139c0.96,0.061,1.917,0.176,2.871,0.302
		c1.294,0.171,2.584,0.376,3.877,0.562c0.102,0.015,0.209,0.002,0.373,0.002c0.112-0.409,0.231-0.815,0.335-1.225
		c0.549-2.162,1.147-4.309,1.906-6.408c0.299-0.826,0.643-1.636,0.952-2.458c0.347-0.923,0.684-1.85,1.009-2.781
		c0.077-0.219,0.11-0.46,0.126-0.693c0.019-0.273-0.125-0.399-0.398-0.356c-0.188,0.03-0.375,0.09-0.551,0.165
		c-0.519,0.222-0.96,0.567-1.369,0.947c-0.392,0.365-0.763,0.753-1.145,1.129c-0.056,0.055-0.125,0.097-0.249,0.1
		c0.059-0.1,0.112-0.204,0.179-0.299c0.46-0.648,0.915-1.305,1.514-1.833c0.336-0.296,0.703-0.565,1.088-0.792
		c0.21-0.124,0.484-0.163,0.734-0.189c0.798-0.083,1.12,0.463,1.043,1.178c-0.104,0.965-0.418,1.879-0.752,2.784
		c-0.602,1.629-1.263,3.238-1.792,4.89c-0.614,1.918-1.114,3.873-1.66,5.813c-0.01,0.037,0.008,0.083,0.02,0.175
		c0.483,0.161,1,0.223,1.546,0.265c0.179-0.314,0.347-0.61,0.517-0.905c0.828-1.435,1.783-2.78,2.864-4.036
		c0.154-0.179,0.336-0.332,0.494-0.507c0.268-0.297,0.578-0.325,0.933-0.191c0.134,0.283,0.01,0.518-0.108,0.737
		c-0.1,0.187-0.207,0.37-0.32,0.549c-0.754,1.186-1.434,2.407-1.767,3.781c-0.08,0.33-0.119,0.67-0.185,1.053
		c0.571,0.187,1.113,0.361,1.653,0.544c0.522,0.176,1.042,0.361,1.594,0.553c0.357-0.914,0.812-1.714,1.346-2.465
		c0.31-0.436,0.636-0.867,1.005-1.252c0.358-0.372,0.81-0.634,1.313-0.788c0.35-0.107,0.695-0.219,0.951-0.505
		c0.041-0.046,0.105-0.073,0.16-0.106c0.151-0.091,0.291-0.05,0.417,0.049c0.129,0.102,0.188,0.235,0.123,0.398
		c-0.634,1.598-0.801,3.336-1.472,4.922c-0.174,0.411,0.024,0.8-0.014,1.23c0.485,0.282,0.962,0.559,1.462,0.849
		c0.119-0.115,0.235-0.206,0.327-0.318c0.468-0.564,0.849-1.186,1.167-1.845c0.775-1.603,1.539-3.211,2.313-4.815
		c0.16-0.331,0.338-0.654,0.511-0.979c0.108-0.202,0.314-0.341,0.543-0.336c0.406,0.008,0.569,0.205,0.427,0.583
		c-0.115,0.307-0.247,0.608-0.388,0.905c-0.519,1.086-0.927,2.221-1.206,3.393c-0.198,0.834-0.376,1.611-0.094,2.486
		c0.309-0.225,0.579-0.46,0.573-0.847c-0.015-0.93,0.26-1.781,0.677-2.587c0.493-0.951,1.018-1.886,1.551-2.816
		c0.118-0.206,0.268-0.4,0.435-0.572c0.146-0.152,0.423-0.338,0.627-0.388c0.434-0.105,0.676,0.117,0.64,0.536
		c-0.014,0.168-0.05,0.342-0.115,0.497c-0.374,0.889-0.738,1.782-1.147,2.655c-0.41,0.873-0.87,1.723-1.305,2.584
		c-0.065,0.129-0.108,0.268-0.205,0.513c0.2-0.081,0.328-0.096,0.398-0.168c0.239-0.245,0.475-0.496,0.68-0.77
		c0.864-1.156,1.54-2.425,2.207-3.699c0.09-0.171,0.184-0.34,0.283-0.505c0.123-0.205,0.313-0.28,0.546-0.271
		c0.286,0.011,0.452,0.148,0.452,0.427c0.001,0.212-0.031,0.428-0.074,0.637c-0.129,0.63-0.308,1.251-0.395,1.886
		c-0.072,0.527-0.044,1.068-0.057,1.602c-0.002,0.064,0.012,0.129,0.025,0.191c0.138,0.629,0.513,0.71,1.261,0.292
		c0.25-0.14,0.471-0.328,0.653-0.549c0.128-0.156,0.251-0.318,0.349-0.493c0.493-0.883,0.892-1.807,1.134-2.792
		c0.02-0.083,0.033-0.169,0.048-0.253c0.115-0.639-0.072-1.159-0.652-1.476c-0.658-0.358-1.324-0.706-2.007-1.01
		c-0.919-0.409-1.863-0.764-2.788-1.16c-0.559-0.239-1.024-0.614-1.454-1.046c-0.345-0.347-0.547-0.76-0.708-1.209
		c-0.213-0.594-0.067-1.115,0.374-1.526c0.31-0.289,0.669-0.538,1.039-0.747c1.113-0.627,2.331-0.979,3.567-1.261
		c1.821-0.417,3.66-0.701,5.537-0.694c0.384,0.001,2.047,0.026,2.494,0.074C85.529,3.55,89.003,4.59,92.289,6.25
		c1.481,0.748,2.893,1.617,4.038,2.836c1.69,1.8,2.398,3.922,1.96,6.386c-0.029,0.164-0.033,0.332-0.052,0.54
		c0.2,0.022,0.364,0.053,0.529,0.057c1.437,0.031,2.873,0.056,4.304,0.238c0.594,0.075,1.2,0.05,1.8,0.086
		c1.432,0.085,2.869,0.135,4.295,0.281c1.873,0.192,3.737,0.47,5.606,0.7c1.275,0.157,2.552,0.311,3.83,0.439
		c1.384,0.139,2.77,0.277,4.158,0.363c1.819,0.113,3.639,0.22,5.464,0.119c0.878-0.049,1.758-0.064,2.637-0.077
		c0.321-0.005,0.642,0.054,0.963,0.062c1.275,0.032,2.546-0.025,3.808-0.21c0.806-0.118,1.58-0.391,2.301-0.77
		c0.161-0.085,0.324-0.171,0.473-0.276c0.413-0.291,0.497-0.883,0.19-1.284c-0.413-0.541-0.953-0.962-1.517-1.357
		c-1.451-1.017-3.034-1.784-4.712-2.333c-1.241-0.407-2.512-0.72-3.771-1.074c-0.227-0.064-0.462-0.104-0.683-0.182
		c-0.279-0.099-0.562-0.206-0.725-0.501c0.334-0.283,0.728-0.221,1.097-0.197c0.661,0.044,1.319,0.131,1.979,0.201
		c1.616,0.17,3.14,0.671,4.615,1.325c1.298,0.575,2.528,1.275,3.627,2.185c0.548,0.453,1.041,0.954,1.419,1.565
		c0.336,0.544,0.362,1.055,0.004,1.614c-0.447,0.699-1.071,1.165-1.802,1.501c-1.244,0.572-2.563,0.824-3.925,0.914
		c-1.373,0.091-2.745,0.081-4.119,0.08c-0.923-0.001-1.845,0.033-2.768,0.042c-1.824,0.019-3.641-0.095-5.457-0.257
		c-0.939-0.083-1.882-0.114-2.821-0.193c-0.938-0.079-1.877-0.169-2.811-0.289c-2.506-0.322-5.008-0.68-7.516-0.989
		c-2.146-0.265-4.297-0.504-6.449-0.714c-1.13-0.11-2.268-0.135-3.403-0.196c-0.107-0.006-0.214,0.004-0.321,0.007
		c-0.44,0.013-0.733,0.176-0.951,0.612c-0.633,1.266-1.538,2.322-2.699,3.143c-0.876,0.619-1.866,0.96-2.912,1.135
		c-2.05,0.344-4.058,0.104-6.022-0.521c-0.505-0.161-0.991-0.411-1.451-0.68c-0.677-0.396-1.038-0.999-1.019-1.809
		c0.017-0.733,0.447-1.182,1.024-1.528c0.784-0.471,1.702-0.618,2.591-0.741c0.907-0.125,1.819-0.212,2.734-0.252
		c1.372-0.06,2.745-0.126,4.118-0.174c0.987-0.035,1.974-0.04,2.962-0.06c0.084-0.002,0.167-0.016,0.268-0.026
		c0.051-0.098,0.118-0.185,0.145-0.284c0.371-1.328,0.312-2.628-0.268-3.891c-0.371-0.807-0.857-1.518-1.528-2.123
		c-1.272-1.147-2.67-2.082-4.231-2.783c-1.213-0.545-2.413-1.127-3.689-1.512c-0.985-0.297-1.999-0.507-3.003-0.727
		c-0.603-0.133-1.212-0.233-1.825-0.299c-1.07-0.115-2.149-0.24-3.218-0.2c-1.237,0.045-2.466,0.296-3.701,0.442
		c-1.176,0.139-2.314,0.45-3.457,0.735c-0.759,0.189-1.417,0.598-2.014,1.093c-0.381,0.316-0.39,0.475-0.077,0.865
		c0.172,0.214,0.378,0.425,0.613,0.559c0.576,0.328,1.168,0.633,1.772,0.905c0.918,0.414,1.862,0.771,2.775,1.196
		c0.423,0.197,0.811,0.479,1.191,0.756c0.759,0.554,1.074,1.332,0.971,2.248c-0.064,0.571-0.172,1.152-0.369,1.688
		c-0.272,0.742-0.617,1.463-0.986,2.164c-0.353,0.671-0.845,1.234-1.519,1.626c-0.534,0.311-1.1,0.339-1.683,0.26
		c-0.456-0.062-0.722-0.417-0.915-0.814c-0.171-0.353-0.269-0.737-0.296-1.128c-0.011-0.162-0.028-0.325-0.054-0.612
		c-0.22,0.294-0.37,0.494-0.519,0.695c-0.319,0.431-0.619,0.877-0.961,1.289c-0.202,0.244-0.451,0.461-0.711,0.644
		c-0.381,0.267-0.789,0.328-1.187,0.003c-0.045-0.037-0.11-0.05-0.154-0.07c-0.287,0.249-0.544,0.507-0.837,0.717
		c-0.341,0.245-0.547,0.204-0.851-0.096c-0.273-0.269-0.363-0.625-0.448-0.979c-0.054-0.226-0.08-0.459-0.131-0.761
		c-0.348,0.321-0.489,0.706-0.709,1.032c-0.214,0.317-0.419,0.64-0.655,1.004c0.295,0.254,0.557,0.502,0.841,0.721
		c0.784,0.602,1.385,1.341,1.726,2.274c0.177,0.485,0.338,0.977,0.468,1.476c0.053,0.206,0.059,0.421,0.022,0.631
		c-0.121,0.695-0.198,1.415-0.444,2.068c-0.331,0.878-0.768,1.724-1.225,2.546c-0.639,1.149-1.574,2.049-2.703,2.7
		c-1.672,0.964-3.38,1.87-5.206,2.522c-2.269,0.811-4.595,1.418-6.955,1.914c-2.404,0.505-4.841,0.835-7.287,1.062
		c-1.623,0.15-3.243,0.345-4.868,0.464c-1.517,0.111-3.04,0.155-4.561,0.207c-1.5,0.051-3.002,0.104-4.503,0.102
		c-1.285-0.001-2.572-0.061-3.856-0.126c-1.69-0.085-3.381-0.18-5.069-0.307c-1.942-0.146-3.886-0.294-5.812-0.601
		c-1.987-0.317-3.974-0.631-5.955-0.98c-1.926-0.339-3.811-0.891-5.594-1.695c-0.959-0.432-1.875-0.938-2.617-1.711
		c-1.071-1.116-1.322-2.755-0.744-4.125c0.403-0.955,1.071-1.694,1.867-2.337c1.161-0.937,2.466-1.635,3.796-2.287
		c1.91-0.937,3.906-1.661,5.93-2.304c3.044-0.967,6.113-1.846,9.231-2.545c1.945-0.436,3.905-0.791,5.887-1.011
		c1.894-0.211,3.788-0.417,5.685-0.601c1.279-0.125,2.563-0.207,3.844-0.311c1.219-0.1,2.437-0.205,3.655-0.304
		c0.297-0.024,0.784-0.044,1.082-0.052c1.265-0.031,2.532-0.134,3.795-0.09c1.194,0.042,2.396,0.094,3.578,0.315
		C48.904,17.297,49.162,17.304,49.487,17.335z M57.962,19.984c0.257,0.138,0.472,0.274,0.702,0.374
		c1.471,0.637,2.787,1.529,3.991,2.565c0.977,0.84,1.337,1.977,1.124,3.256c-0.22,1.32-0.956,2.326-2.023,3.099
		c-1.58,1.145-3.311,1.971-5.208,2.451c-1.561,0.395-3.136,0.707-4.727,0.954c-2.544,0.394-5.1,0.68-7.668,0.814
		c-1.409,0.074-2.823,0.136-4.24,0.072c-1.006-0.046-2.011-0.067-3.013-0.182c-1.559-0.179-3.092-0.48-4.57-1.008
		c-1.894-0.677-3.18-1.973-3.838-3.882c-0.254-0.737-0.305-1.479,0.033-2.194c0.209-0.442,0.454-0.883,0.764-1.257
		c1.014-1.224,2.276-2.161,3.703-2.835c1.754-0.827,3.607-1.359,5.54-1.59c0.978-0.116,1.954-0.247,2.934-0.34
		c0.479-0.046,0.968-0.141,1.504,0.046c-0.338,0.281-0.706,0.355-1.077,0.436c-1.924,0.421-3.878,0.696-5.77,1.281
		c-1.897,0.586-3.599,1.504-5.104,2.783c-0.404,0.343-0.75,0.768-1.073,1.193c-0.586,0.769-0.665,1.607-0.211,2.475
		c0.332,0.634,0.773,1.185,1.305,1.66c0.637,0.57,1.403,0.903,2.208,1.15c2.673,0.82,5.425,1.072,8.2,1.051
		c1.604-0.012,3.211-0.121,4.811-0.254c1.385-0.115,2.762-0.326,4.143-0.491c1.916-0.23,3.812-0.575,5.683-1.049
		c1.96-0.496,3.74-1.363,5.31-2.645c0.58-0.473,0.976-1.062,1.187-1.787c0.254-0.874,0.049-1.604-0.611-2.219
		c-0.047-0.044-0.091-0.092-0.14-0.133c-1.458-1.19-3.113-2.039-4.801-2.821c-0.202,0.083-0.382,0.151-0.556,0.23
		c-0.437,0.199-0.84,0.094-1.224-0.139c-0.302-0.183-0.528-0.447-0.672-0.763c-0.119-0.261-0.306-0.396-0.569-0.471
		c-0.638-0.183-1.272-0.383-1.911-0.563c-0.138-0.039-0.291-0.023-0.465-0.034c-0.138,0.233-0.261,0.456-0.399,0.671
		c-0.336,0.523-0.665,1.051-1.025,1.558c-0.145,0.204-0.351,0.375-0.555,0.526c-0.195,0.143-0.357,0.11-0.513-0.067
		c-0.083-0.094-0.149-0.209-0.202-0.325c-0.205-0.447-0.205-0.914-0.116-1.386c0.095-0.501,0.192-1.001,0.294-1.526
		c-0.134-0.035-0.232-0.071-0.334-0.087c-1.336-0.204-2.677-0.364-4.031-0.347c-0.835,0.01-1.67,0.061-2.505,0.07
		c-1.265,0.013-2.521,0.139-3.779,0.256c-1.64,0.153-3.285,0.264-4.925,0.418c-2.045,0.192-4.09,0.388-6.13,0.623
		c-1.382,0.16-2.76,0.361-4.132,0.596c-2.664,0.457-5.273,1.157-7.871,1.894c-2.537,0.72-5.056,1.497-7.481,2.546
		c-1.638,0.708-3.221,1.52-4.659,2.588c-0.552,0.409-1.077,0.852-1.487,1.414c-0.709,0.974-0.812,2.405,0.277,3.372
		c1.026,0.911,2.225,1.507,3.479,2.026c0.718,0.297,1.481,0.417,2.219,0.634c0.574,0.169,1.164,0.294,1.754,0.394
		c2.49,0.423,4.978,0.865,7.478,1.23c1.438,0.21,2.893,0.301,4.343,0.419c0.939,0.076,1.882,0.099,2.822,0.155
		c1.282,0.075,2.563,0.179,3.845,0.23c0.943,0.038,1.889,0.025,2.834,0.012c1.308-0.018,2.615-0.053,3.923-0.091
		c1.328-0.039,2.656-0.09,3.984-0.137c0.279-0.01,0.557-0.02,0.835-0.044c1.257-0.108,2.514-0.219,3.771-0.334
		c1.108-0.101,2.221-0.176,3.324-0.319c1.869-0.242,3.727-0.555,5.567-0.975c2.197-0.501,4.368-1.089,6.457-1.939
		c0.733-0.298,1.422-0.702,2.142-1.032c1.02-0.466,1.968-1.058,2.858-1.725c0.719-0.539,1.363-1.189,1.781-2.009
		c0.312-0.611,0.633-1.223,0.87-1.864c0.381-1.031,0.618-2.058,0.232-3.19c-0.493-1.446-1.494-2.351-2.728-3.073
		c-0.144,0.061-0.242,0.102-0.34,0.143c-0.558,0.232-1.056,0.154-1.453-0.318c-0.191-0.227-0.352-0.48-0.517-0.728
		c-0.087-0.131-0.154-0.274-0.256-0.457c-0.169,0.234-0.283,0.415-0.42,0.575c-0.166,0.194-0.333,0.398-0.535,0.551
		c-0.569,0.429-1.132,0.349-1.583-0.2c-0.129-0.158-0.247-0.325-0.397-0.523C58.21,19.624,58.104,19.777,57.962,19.984z
		 M96.721,17.105c-0.206-0.018-0.348-0.047-0.487-0.039c-0.299,0.017-0.596,0.073-0.894,0.076c-2.228,0.027-4.453,0.096-6.676,0.258
		c-0.899,0.066-1.793,0.168-2.661,0.408c-0.429,0.118-0.845,0.308-1.239,0.517c-0.361,0.192-0.434,0.523-0.218,0.869
		c0.109,0.176,0.274,0.328,0.441,0.455c0.43,0.329,0.923,0.545,1.438,0.7c1.813,0.546,3.662,0.719,5.527,0.361
		c1.484-0.285,2.82-0.893,3.785-2.127C96.087,18.134,96.462,17.698,96.721,17.105z M58.161,17.768
		c-1.047-0.438-2.019-0.784-3.113-0.937c-0.134,0.692-0.057,1.332,0.093,2.004c0.612,0.234,1.224,0.468,1.88,0.719
		C57.465,19.002,57.991,18.539,58.161,17.768z M54.007,18.455c0-0.666,0-1.255,0-1.875c-0.326-0.092-0.613-0.235-0.989-0.111
		c-0.226,0.442-0.464,0.91-0.715,1.401C52.851,18.199,53.419,18.281,54.007,18.455z M50.76,16.036
		c-0.07,0.262-0.149,0.503-0.196,0.75c-0.046,0.24-0.186,0.471-0.118,0.729c0.322,0.122,0.618,0.221,0.958,0.154
		c0.221-0.482,0.525-0.912,0.644-1.485C51.618,16.122,51.26,15.895,50.76,16.036z M59.825,17.195
		c0.413,0.207,0.711,0.412,1.093,0.378c0.307-0.425,0.194-0.926,0.33-1.368c0.132-0.429,0.214-0.873,0.317-1.31
		c-0.03-0.013-0.06-0.026-0.09-0.04C60.94,15.614,60.405,16.373,59.825,17.195z M42.867,9.405c-0.071,0.526,0.169,0.958,0.388,1.388
		c0.079,0.155,0.168,0.365,0.422,0.306C44.08,10.219,43.831,9.681,42.867,9.405z M50.097,18.807
		c-0.227,0.612-0.365,1.159-0.419,1.755c0.425-0.308,0.818-0.935,1.015-1.618C50.513,18.902,50.335,18.861,50.097,18.807z
		 M59.564,19.339c0.465-0.26,0.465-0.26,0.77-0.701c-0.167-0.089-0.322-0.203-0.496-0.255c-0.209-0.062-0.45-0.29-0.642-0.07
		c-0.173,0.198,0.004,0.446,0.091,0.653C59.341,19.093,59.456,19.196,59.564,19.339z M61.274,13.836
		c-0.029-0.035-0.058-0.071-0.087-0.106c-0.2,0.213-0.425,0.408-0.592,0.644c-0.17,0.241-0.425,0.451-0.384,0.814
		C60.565,14.738,60.919,14.287,61.274,13.836z M54.14,15.368c0.053-0.328,0.102-0.629,0.151-0.931
		c-0.303,0.225-0.499,0.492-0.569,0.873C53.881,15.332,53.999,15.349,54.14,15.368z"/>
	<path class="st0" d="M111.526,9.316c0-0.46-0.006-0.821,0.004-1.182c0.003-0.104,0.039-0.211,0.077-0.311
		c0.129-0.342,0.385-0.497,0.693-0.428c0.342,0.077,0.584,0.362,0.541,0.696c-0.059,0.467-0.307,0.851-0.673,1.129
		C112.039,9.318,111.808,9.28,111.526,9.316z"/>
</g>
</svg>
